<mxfile host="65bd71144e">
    <diagram id="0hb4rpHuzgSwgjf9u-FC" name="sequence diagram">
        <mxGraphModel dx="1189" dy="804" grid="1" gridSize="10" guides="1" tooltips="1" connect="1" arrows="1" fold="1" page="1" pageScale="1" pageWidth="2339" pageHeight="3300" background="none" math="0" shadow="0">
            <root>
                <mxCell id="0"/>
                <mxCell id="1" parent="0"/>
                <mxCell id="132" value="" style="shape=umlLifeline;participant=umlActor;perimeter=lifelinePerimeter;whiteSpace=wrap;html=1;container=1;collapsible=0;recursiveResize=0;verticalAlign=top;spacingTop=36;outlineConnect=0;" parent="1" vertex="1">
                    <mxGeometry x="50" y="40" width="20" height="840" as="geometry"/>
                </mxCell>
                <mxCell id="133" value="" style="html=1;points=[];perimeter=orthogonalPerimeter;" parent="132" vertex="1">
                    <mxGeometry x="5" y="100" width="10" height="150" as="geometry"/>
                </mxCell>
                <mxCell id="151" value="user" style="text;html=1;strokeColor=none;fillColor=none;align=center;verticalAlign=middle;whiteSpace=wrap;rounded=0;" parent="132" vertex="1">
                    <mxGeometry x="-20" y="40" width="60" height="30" as="geometry"/>
                </mxCell>
                <mxCell id="138" value="" style="shape=umlLifeline;participant=umlBoundary;perimeter=lifelinePerimeter;whiteSpace=wrap;html=1;container=1;collapsible=0;recursiveResize=0;verticalAlign=top;spacingTop=36;outlineConnect=0;" parent="1" vertex="1">
                    <mxGeometry x="230" y="40" width="50" height="810" as="geometry"/>
                </mxCell>
                <mxCell id="147" value="Main Page" style="text;html=1;strokeColor=none;fillColor=none;align=center;verticalAlign=middle;whiteSpace=wrap;rounded=0;" parent="138" vertex="1">
                    <mxGeometry x="-5" y="40" width="60" height="30" as="geometry"/>
                </mxCell>
                <mxCell id="148" value="" style="html=1;points=[];perimeter=orthogonalPerimeter;" parent="138" vertex="1">
                    <mxGeometry x="20" y="120" width="10" height="620" as="geometry"/>
                </mxCell>
                <mxCell id="142" value="" style="shape=umlLifeline;participant=umlBoundary;perimeter=lifelinePerimeter;whiteSpace=wrap;html=1;container=1;collapsible=0;recursiveResize=0;verticalAlign=top;spacingTop=36;outlineConnect=0;" parent="1" vertex="1">
                    <mxGeometry x="760" y="40" width="50" height="800" as="geometry"/>
                </mxCell>
                <mxCell id="155" value="reservation page" style="text;html=1;strokeColor=none;fillColor=none;align=center;verticalAlign=middle;whiteSpace=wrap;rounded=0;" parent="142" vertex="1">
                    <mxGeometry x="-5" y="40" width="60" height="30" as="geometry"/>
                </mxCell>
                <mxCell id="159" value="" style="html=1;points=[];perimeter=orthogonalPerimeter;" parent="142" vertex="1">
                    <mxGeometry x="20" y="200" width="10" height="190" as="geometry"/>
                </mxCell>
                <mxCell id="143" value="" style="shape=umlLifeline;participant=umlBoundary;perimeter=lifelinePerimeter;whiteSpace=wrap;html=1;container=1;collapsible=0;recursiveResize=0;verticalAlign=top;spacingTop=36;outlineConnect=0;" parent="1" vertex="1">
                    <mxGeometry x="450" y="40" width="50" height="810" as="geometry"/>
                </mxCell>
                <mxCell id="152" value="view packages page" style="text;html=1;strokeColor=none;fillColor=none;align=center;verticalAlign=middle;whiteSpace=wrap;rounded=0;" parent="143" vertex="1">
                    <mxGeometry x="-5" y="50" width="60" height="30" as="geometry"/>
                </mxCell>
                <mxCell id="158" value="" style="html=1;points=[];perimeter=orthogonalPerimeter;" parent="143" vertex="1">
                    <mxGeometry x="20" y="120" width="10" height="150" as="geometry"/>
                </mxCell>
                <mxCell id="156" value="" style="endArrow=classic;html=1;" parent="143" edge="1">
                    <mxGeometry relative="1" as="geometry">
                        <mxPoint x="-190" y="192" as="sourcePoint"/>
                        <mxPoint x="20" y="192" as="targetPoint"/>
                        <Array as="points">
                            <mxPoint x="-60" y="191.5"/>
                        </Array>
                    </mxGeometry>
                </mxCell>
                <mxCell id="157" value="create reservation" style="edgeLabel;resizable=0;html=1;align=center;verticalAlign=middle;" parent="156" connectable="0" vertex="1">
                    <mxGeometry relative="1" as="geometry"/>
                </mxCell>
                <mxCell id="146" value="" style="shape=umlLifeline;participant=umlBoundary;perimeter=lifelinePerimeter;whiteSpace=wrap;html=1;container=1;collapsible=0;recursiveResize=0;verticalAlign=top;spacingTop=36;outlineConnect=0;" parent="1" vertex="1">
                    <mxGeometry x="1030" y="40" width="50" height="800" as="geometry"/>
                </mxCell>
                <mxCell id="154" value="cancellation page" style="text;html=1;strokeColor=none;fillColor=none;align=center;verticalAlign=middle;whiteSpace=wrap;rounded=0;" parent="146" vertex="1">
                    <mxGeometry x="-5" y="40" width="60" height="30" as="geometry"/>
                </mxCell>
                <mxCell id="168" value="" style="html=1;points=[];perimeter=orthogonalPerimeter;" parent="146" vertex="1">
                    <mxGeometry x="20" y="380" width="10" height="100" as="geometry"/>
                </mxCell>
                <mxCell id="149" value="" style="endArrow=classic;html=1;" parent="1" edge="1">
                    <mxGeometry relative="1" as="geometry">
                        <mxPoint x="65" y="180" as="sourcePoint"/>
                        <mxPoint x="250" y="180" as="targetPoint"/>
                        <Array as="points">
                            <mxPoint x="125" y="180"/>
                        </Array>
                    </mxGeometry>
                </mxCell>
                <mxCell id="150" value="log in to system" style="edgeLabel;resizable=0;html=1;align=center;verticalAlign=middle;" parent="149" connectable="0" vertex="1">
                    <mxGeometry relative="1" as="geometry"/>
                </mxCell>
                <mxCell id="166" value="" style="endArrow=classic;html=1;dashed=1;" parent="1" edge="1">
                    <mxGeometry relative="1" as="geometry">
                        <mxPoint x="1270" y="250.5" as="sourcePoint"/>
                        <mxPoint x="790" y="250" as="targetPoint"/>
                        <Array as="points">
                            <mxPoint x="1030" y="250"/>
                        </Array>
                    </mxGeometry>
                </mxCell>
                <mxCell id="167" value="go to reservation page" style="edgeLabel;resizable=0;html=1;align=center;verticalAlign=middle;" parent="166" connectable="0" vertex="1">
                    <mxGeometry relative="1" as="geometry"/>
                </mxCell>
                <mxCell id="172" value="" style="shape=umlLifeline;participant=umlEntity;perimeter=lifelinePerimeter;whiteSpace=wrap;html=1;container=1;collapsible=0;recursiveResize=0;verticalAlign=top;spacingTop=36;outlineConnect=0;" parent="1" vertex="1">
                    <mxGeometry x="1250" y="40" width="40" height="790" as="geometry"/>
                </mxCell>
                <mxCell id="173" value="avalaible package" style="text;html=1;strokeColor=none;fillColor=none;align=center;verticalAlign=middle;whiteSpace=wrap;rounded=0;" parent="172" vertex="1">
                    <mxGeometry x="-10" y="40" width="60" height="30" as="geometry"/>
                </mxCell>
                <mxCell id="179" value="" style="html=1;points=[];perimeter=orthogonalPerimeter;" parent="172" vertex="1">
                    <mxGeometry x="15" y="125" width="10" height="100" as="geometry"/>
                </mxCell>
                <mxCell id="175" value="" style="shape=umlLifeline;participant=umlEntity;perimeter=lifelinePerimeter;whiteSpace=wrap;html=1;container=1;collapsible=0;recursiveResize=0;verticalAlign=top;spacingTop=36;outlineConnect=0;" parent="1" vertex="1">
                    <mxGeometry x="1390" y="40" width="40" height="800" as="geometry"/>
                </mxCell>
                <mxCell id="176" value="reservation information" style="text;html=1;strokeColor=none;fillColor=none;align=center;verticalAlign=middle;whiteSpace=wrap;rounded=0;" parent="175" vertex="1">
                    <mxGeometry x="-10" y="40" width="60" height="30" as="geometry"/>
                </mxCell>
                <mxCell id="182" value="" style="html=1;points=[];perimeter=orthogonalPerimeter;" parent="175" vertex="1">
                    <mxGeometry x="15" y="170" width="10" height="500" as="geometry"/>
                </mxCell>
                <mxCell id="177" value="" style="endArrow=classic;html=1;entryX=0.033;entryY=0.473;entryDx=0;entryDy=0;entryPerimeter=0;" parent="1" target="179" edge="1">
                    <mxGeometry relative="1" as="geometry">
                        <mxPoint x="480" y="210" as="sourcePoint"/>
                        <mxPoint x="1260" y="210" as="targetPoint"/>
                        <Array as="points">
                            <mxPoint x="540" y="210"/>
                        </Array>
                    </mxGeometry>
                </mxCell>
                <mxCell id="178" value="request avalaible packages" style="edgeLabel;resizable=0;html=1;align=center;verticalAlign=middle;" parent="177" connectable="0" vertex="1">
                    <mxGeometry relative="1" as="geometry"/>
                </mxCell>
                <mxCell id="180" value="" style="endArrow=classic;html=1;entryX=0.011;entryY=0.199;entryDx=0;entryDy=0;entryPerimeter=0;" parent="1" source="184" target="182" edge="1">
                    <mxGeometry relative="1" as="geometry">
                        <mxPoint x="940" y="290" as="sourcePoint"/>
                        <mxPoint x="1400" y="310" as="targetPoint"/>
                        <Array as="points"/>
                    </mxGeometry>
                </mxCell>
                <mxCell id="181" value="save reservation data" style="edgeLabel;resizable=0;html=1;align=center;verticalAlign=middle;" parent="180" connectable="0" vertex="1">
                    <mxGeometry relative="1" as="geometry"/>
                </mxCell>
                <mxCell id="183" value="" style="shape=umlLifeline;participant=umlControl;perimeter=lifelinePerimeter;whiteSpace=wrap;html=1;container=1;collapsible=0;recursiveResize=0;verticalAlign=top;spacingTop=36;outlineConnect=0;" parent="1" vertex="1">
                    <mxGeometry x="1150" y="40" width="40" height="800" as="geometry"/>
                </mxCell>
                <mxCell id="190" value="download form" style="text;html=1;strokeColor=none;fillColor=none;align=center;verticalAlign=middle;whiteSpace=wrap;rounded=0;" parent="183" vertex="1">
                    <mxGeometry x="-10" y="40" width="60" height="30" as="geometry"/>
                </mxCell>
                <mxCell id="198" value="" style="html=1;points=[];perimeter=orthogonalPerimeter;" parent="183" vertex="1">
                    <mxGeometry x="15" y="510" width="10" height="100" as="geometry"/>
                </mxCell>
                <mxCell id="184" value="" style="shape=umlLifeline;participant=umlControl;perimeter=lifelinePerimeter;whiteSpace=wrap;html=1;container=1;collapsible=0;recursiveResize=0;verticalAlign=top;spacingTop=36;outlineConnect=0;" parent="1" vertex="1">
                    <mxGeometry x="900" y="40" width="40" height="800" as="geometry"/>
                </mxCell>
                <mxCell id="185" value="" style="html=1;points=[];perimeter=orthogonalPerimeter;" parent="184" vertex="1">
                    <mxGeometry x="15" y="240" width="10" height="150" as="geometry"/>
                </mxCell>
                <mxCell id="186" value="reservation form" style="text;html=1;strokeColor=none;fillColor=none;align=center;verticalAlign=middle;whiteSpace=wrap;rounded=0;" parent="184" vertex="1">
                    <mxGeometry x="-10" y="40" width="60" height="30" as="geometry"/>
                </mxCell>
                <mxCell id="188" value="" style="endArrow=classic;html=1;entryX=-0.086;entryY=0.05;entryDx=0;entryDy=0;entryPerimeter=0;" parent="1" edge="1">
                    <mxGeometry relative="1" as="geometry">
                        <mxPoint x="790" y="340" as="sourcePoint"/>
                        <mxPoint x="914.1399999999999" y="340" as="targetPoint"/>
                        <Array as="points">
                            <mxPoint x="790" y="341.5"/>
                        </Array>
                    </mxGeometry>
                </mxCell>
                <mxCell id="189" value="go to reservation&lt;br&gt;form page" style="edgeLabel;resizable=0;html=1;align=center;verticalAlign=middle;" parent="188" connectable="0" vertex="1">
                    <mxGeometry relative="1" as="geometry"/>
                </mxCell>
                <mxCell id="192" value="" style="endArrow=classic;html=1;" parent="1" edge="1">
                    <mxGeometry relative="1" as="geometry">
                        <mxPoint x="260" y="445" as="sourcePoint"/>
                        <mxPoint x="1050" y="445" as="targetPoint"/>
                        <Array as="points">
                            <mxPoint x="390" y="444.5"/>
                        </Array>
                    </mxGeometry>
                </mxCell>
                <mxCell id="193" value="cancellation reservation" style="edgeLabel;resizable=0;html=1;align=center;verticalAlign=middle;" parent="192" connectable="0" vertex="1">
                    <mxGeometry relative="1" as="geometry"/>
                </mxCell>
                <mxCell id="194" value="" style="endArrow=classic;html=1;entryX=0.04;entryY=0.474;entryDx=0;entryDy=0;entryPerimeter=0;" parent="1" target="182" edge="1">
                    <mxGeometry relative="1" as="geometry">
                        <mxPoint x="1060.0004347826084" y="444.57" as="sourcePoint"/>
                        <mxPoint x="1400" y="445" as="targetPoint"/>
                        <Array as="points"/>
                    </mxGeometry>
                </mxCell>
                <mxCell id="195" value="view reservation" style="edgeLabel;resizable=0;html=1;align=center;verticalAlign=middle;" parent="194" connectable="0" vertex="1">
                    <mxGeometry relative="1" as="geometry"/>
                </mxCell>
                <mxCell id="196" value="" style="endArrow=classic;html=1;exitX=0;exitY=0.64;exitDx=0;exitDy=0;exitPerimeter=0;" parent="1" source="182" edge="1">
                    <mxGeometry relative="1" as="geometry">
                        <mxPoint x="1399.9999999999998" y="530.5000000000001" as="sourcePoint"/>
                        <mxPoint x="260" y="530" as="targetPoint"/>
                        <Array as="points">
                            <mxPoint x="740" y="530"/>
                        </Array>
                    </mxGeometry>
                </mxCell>
                <mxCell id="197" value="cancellation confirm" style="edgeLabel;resizable=0;html=1;align=center;verticalAlign=middle;" parent="196" connectable="0" vertex="1">
                    <mxGeometry relative="1" as="geometry"/>
                </mxCell>
                <mxCell id="199" value="" style="endArrow=classic;html=1;entryX=0.031;entryY=0.496;entryDx=0;entryDy=0;entryPerimeter=0;" parent="1" target="198" edge="1">
                    <mxGeometry relative="1" as="geometry">
                        <mxPoint x="260" y="600.5" as="sourcePoint"/>
                        <mxPoint x="1160" y="600" as="targetPoint"/>
                        <Array as="points">
                            <mxPoint x="390" y="600"/>
                        </Array>
                    </mxGeometry>
                </mxCell>
                <mxCell id="200" value="download form" style="edgeLabel;resizable=0;html=1;align=center;verticalAlign=middle;" parent="199" connectable="0" vertex="1">
                    <mxGeometry relative="1" as="geometry"/>
                </mxCell>
                <mxCell id="203" value="" style="endArrow=classic;html=1;exitX=0;exitY=0.64;exitDx=0;exitDy=0;exitPerimeter=0;" parent="1" edge="1">
                    <mxGeometry relative="1" as="geometry">
                        <mxPoint x="1405" y="680" as="sourcePoint"/>
                        <mxPoint x="260" y="680" as="targetPoint"/>
                        <Array as="points">
                            <mxPoint x="740" y="680"/>
                        </Array>
                    </mxGeometry>
                </mxCell>
                <mxCell id="204" value="download confrimation" style="edgeLabel;resizable=0;html=1;align=center;verticalAlign=middle;" parent="203" connectable="0" vertex="1">
                    <mxGeometry relative="1" as="geometry"/>
                </mxCell>
                <mxCell id="201" value="" style="endArrow=classic;html=1;entryX=-0.006;entryY=0.79;entryDx=0;entryDy=0;entryPerimeter=0;" parent="1" source="183" target="182" edge="1">
                    <mxGeometry relative="1" as="geometry">
                        <mxPoint x="1180" y="600" as="sourcePoint"/>
                        <mxPoint x="1400" y="602" as="targetPoint"/>
                        <Array as="points"/>
                    </mxGeometry>
                </mxCell>
                <mxCell id="202" value="view reservation" style="edgeLabel;resizable=0;html=1;align=center;verticalAlign=middle;" parent="201" connectable="0" vertex="1">
                    <mxGeometry relative="1" as="geometry"/>
                </mxCell>
            </root>
        </mxGraphModel>
    </diagram>
    <diagram id="Sn8-vlikTCwbG7RW39EY" name="use case">
        <mxGraphModel dx="832" dy="563" grid="1" gridSize="10" guides="1" tooltips="1" connect="1" arrows="1" fold="1" page="1" pageScale="1" pageWidth="2339" pageHeight="3300" math="0" shadow="0">
            <root>
                <mxCell id="0"/>
                <mxCell id="1" parent="0"/>
                <mxCell id="7ME36p0e2wqwK5g-LxDT-1" value="" style="rounded=0;whiteSpace=wrap;html=1;" parent="1" vertex="1">
                    <mxGeometry x="235" y="912" width="387" height="162" as="geometry"/>
                </mxCell>
                <mxCell id="7ME36p0e2wqwK5g-LxDT-2" value="&lt;font style=&quot;font-size: 9px;&quot;&gt;Payment Management Subsystem&lt;/font&gt;" style="rounded=0;whiteSpace=wrap;html=1;" parent="1" vertex="1">
                    <mxGeometry x="236.5" y="493" width="149.5" height="19" as="geometry"/>
                </mxCell>
                <mxCell id="7ME36p0e2wqwK5g-LxDT-3" value="" style="rounded=0;whiteSpace=wrap;html=1;" parent="1" vertex="1">
                    <mxGeometry x="237" y="512" width="337" height="146" as="geometry"/>
                </mxCell>
                <mxCell id="7ME36p0e2wqwK5g-LxDT-4" value="&lt;font style=&quot;font-size: 9px;&quot;&gt;UC008 : Accept payment&amp;nbsp;&lt;/font&gt;" style="ellipse;whiteSpace=wrap;html=1;fontSize=11;rounded=0;" parent="1" vertex="1">
                    <mxGeometry x="257" y="535.5" width="76" height="49" as="geometry"/>
                </mxCell>
                <mxCell id="7ME36p0e2wqwK5g-LxDT-5" value="&amp;lt;&amp;lt;include&amp;gt;&amp;gt;" style="text;html=1;strokeColor=none;fillColor=none;align=center;verticalAlign=middle;whiteSpace=wrap;rounded=0;fontSize=11;rotation=15;" parent="1" vertex="1">
                    <mxGeometry x="337.5" y="545" width="60" height="30" as="geometry"/>
                </mxCell>
                <mxCell id="7ME36p0e2wqwK5g-LxDT-6" value="&lt;font style=&quot;font-size: 8px;&quot;&gt;UC009 : Process refunds&lt;/font&gt;" style="ellipse;whiteSpace=wrap;html=1;fontSize=11;rounded=0;" parent="1" vertex="1">
                    <mxGeometry x="397.5" y="550" width="76" height="49" as="geometry"/>
                </mxCell>
                <mxCell id="7ME36p0e2wqwK5g-LxDT-7" value="&lt;font style=&quot;font-size: 8px;&quot;&gt;UC010 : Manage payment information&lt;/font&gt;" style="ellipse;whiteSpace=wrap;html=1;fontSize=11;rounded=0;" parent="1" vertex="1">
                    <mxGeometry x="368" y="601" width="82" height="49" as="geometry"/>
                </mxCell>
                <mxCell id="7ME36p0e2wqwK5g-LxDT-8" value="&amp;lt;&amp;lt;include&amp;gt;&amp;gt;" style="text;html=1;strokeColor=none;fillColor=none;align=center;verticalAlign=middle;whiteSpace=wrap;rounded=0;fontSize=11;rotation=30;" parent="1" vertex="1">
                    <mxGeometry x="309.57" y="580.4" width="78.36" height="23.56" as="geometry"/>
                </mxCell>
                <mxCell id="7ME36p0e2wqwK5g-LxDT-9" value="UC011 : Manage Payment" style="ellipse;whiteSpace=wrap;html=1;fontSize=9;rounded=0;" parent="1" vertex="1">
                    <mxGeometry x="499" y="517" width="70" height="55" as="geometry"/>
                </mxCell>
                <mxCell id="7ME36p0e2wqwK5g-LxDT-10" value="&lt;font style=&quot;font-size: 9px;&quot;&gt;UC017 : Configure System&amp;nbsp;&lt;/font&gt;" style="ellipse;whiteSpace=wrap;html=1;fontSize=11;rounded=0;" parent="1" vertex="1">
                    <mxGeometry x="349" y="924" width="76" height="49" as="geometry"/>
                </mxCell>
                <mxCell id="7ME36p0e2wqwK5g-LxDT-11" value="&amp;lt;&amp;lt;include&amp;gt;&amp;gt;" style="text;html=1;strokeColor=none;fillColor=none;align=center;verticalAlign=middle;whiteSpace=wrap;rounded=0;fontSize=11;rotation=40;" parent="1" vertex="1">
                    <mxGeometry x="417" y="964" width="60" height="30" as="geometry"/>
                </mxCell>
                <mxCell id="7ME36p0e2wqwK5g-LxDT-12" value="&lt;font style=&quot;font-size: 10px;&quot;&gt;UC018 : Manage Settings&lt;/font&gt;" style="ellipse;whiteSpace=wrap;html=1;fontSize=11;rounded=0;" parent="1" vertex="1">
                    <mxGeometry x="249" y="1004" width="76" height="49" as="geometry"/>
                </mxCell>
                <mxCell id="7ME36p0e2wqwK5g-LxDT-13" value="&lt;font style=&quot;font-size: 10px;&quot;&gt;UC019 : Update System&lt;/font&gt;" style="ellipse;whiteSpace=wrap;html=1;fontSize=11;rounded=0;" parent="1" vertex="1">
                    <mxGeometry x="445" y="1000" width="73" height="48.5" as="geometry"/>
                </mxCell>
                <mxCell id="7ME36p0e2wqwK5g-LxDT-14" value="&amp;lt;&amp;lt;include&amp;gt;&amp;gt;" style="text;html=1;strokeColor=none;fillColor=none;align=center;verticalAlign=middle;whiteSpace=wrap;rounded=0;fontSize=11;rotation=-45;" parent="1" vertex="1">
                    <mxGeometry x="290" y="970" width="73" height="30" as="geometry"/>
                </mxCell>
                <mxCell id="7ME36p0e2wqwK5g-LxDT-15" value="" style="rounded=0;whiteSpace=wrap;html=1;" parent="1" vertex="1">
                    <mxGeometry x="237" y="304" width="338" height="181" as="geometry"/>
                </mxCell>
                <mxCell id="7ME36p0e2wqwK5g-LxDT-16" value="&lt;font style=&quot;font-size: 8px;&quot;&gt;UC003 : View Available Packages&lt;/font&gt;" style="ellipse;whiteSpace=wrap;html=1;fontSize=11;rounded=0;" parent="1" vertex="1">
                    <mxGeometry x="249" y="318" width="76" height="49" as="geometry"/>
                </mxCell>
                <mxCell id="7ME36p0e2wqwK5g-LxDT-17" value="&amp;lt;&amp;lt;include&amp;gt;&amp;gt;" style="text;html=1;strokeColor=none;fillColor=none;align=center;verticalAlign=middle;whiteSpace=wrap;rounded=0;fontSize=11;" parent="1" vertex="1">
                    <mxGeometry x="327" y="327.5" width="60" height="30" as="geometry"/>
                </mxCell>
                <mxCell id="7ME36p0e2wqwK5g-LxDT-18" value="&lt;font style=&quot;font-size: 9px;&quot;&gt;UC004 : Select Packages&lt;/font&gt;" style="ellipse;whiteSpace=wrap;html=1;fontSize=11;rounded=0;" parent="1" vertex="1">
                    <mxGeometry x="387" y="318" width="76" height="49" as="geometry"/>
                </mxCell>
                <mxCell id="7ME36p0e2wqwK5g-LxDT-19" value="&lt;font style=&quot;font-size: 10px;&quot;&gt;UC005 : Make reservation&lt;/font&gt;" style="ellipse;whiteSpace=wrap;html=1;fontSize=11;rounded=0;" parent="1" vertex="1">
                    <mxGeometry x="298" y="423" width="76" height="49" as="geometry"/>
                </mxCell>
                <mxCell id="7ME36p0e2wqwK5g-LxDT-20" value="&lt;font style=&quot;font-size: 10px;&quot;&gt;UC006 : Make cancellation&lt;/font&gt;" style="ellipse;whiteSpace=wrap;html=1;fontSize=11;rounded=0;" parent="1" vertex="1">
                    <mxGeometry x="374" y="383" width="76" height="49" as="geometry"/>
                </mxCell>
                <mxCell id="7ME36p0e2wqwK5g-LxDT-21" value="&amp;lt;&amp;lt;include&amp;gt;&amp;gt;" style="text;html=1;strokeColor=none;fillColor=none;align=center;verticalAlign=middle;whiteSpace=wrap;rounded=0;fontSize=11;rotation=55;" parent="1" vertex="1">
                    <mxGeometry x="273.5" y="380" width="64" height="36" as="geometry"/>
                </mxCell>
                <mxCell id="7ME36p0e2wqwK5g-LxDT-22" value="&amp;lt;&amp;lt;include&amp;gt;&amp;gt;" style="text;html=1;strokeColor=none;fillColor=none;align=center;verticalAlign=middle;whiteSpace=wrap;rounded=0;fontSize=11;rotation=30;" parent="1" vertex="1">
                    <mxGeometry x="313" y="366.75" width="75" height="30" as="geometry"/>
                </mxCell>
                <mxCell id="7ME36p0e2wqwK5g-LxDT-23" value="UC007 : Manage Booking" style="ellipse;whiteSpace=wrap;html=1;fontSize=9;rounded=0;" parent="1" vertex="1">
                    <mxGeometry x="492" y="315" width="70" height="55" as="geometry"/>
                </mxCell>
                <mxCell id="7ME36p0e2wqwK5g-LxDT-24" value="" style="rounded=0;whiteSpace=wrap;html=1;" parent="1" vertex="1">
                    <mxGeometry x="235.5" y="681" width="383.5" height="184" as="geometry"/>
                </mxCell>
                <mxCell id="7ME36p0e2wqwK5g-LxDT-25" value="&lt;font style=&quot;font-size: 9px;&quot;&gt;Notification&amp;nbsp; Subsystem&lt;/font&gt;" style="rounded=0;whiteSpace=wrap;html=1;" parent="1" vertex="1">
                    <mxGeometry x="235.5" y="664" width="149.5" height="19" as="geometry"/>
                </mxCell>
                <mxCell id="7ME36p0e2wqwK5g-LxDT-26" value="&lt;font style=&quot;font-size: 9px;&quot;&gt;UC012 : Notify Users&lt;/font&gt;" style="ellipse;whiteSpace=wrap;html=1;fontSize=11;rounded=0;" parent="1" vertex="1">
                    <mxGeometry x="250" y="696.25" width="76" height="49" as="geometry"/>
                </mxCell>
                <mxCell id="7ME36p0e2wqwK5g-LxDT-27" value="&amp;lt;&amp;lt;include&amp;gt;&amp;gt;" style="text;html=1;strokeColor=none;fillColor=none;align=center;verticalAlign=middle;whiteSpace=wrap;rounded=0;fontSize=11;" parent="1" vertex="1">
                    <mxGeometry x="325" y="706.5" width="60" height="30" as="geometry"/>
                </mxCell>
                <mxCell id="7ME36p0e2wqwK5g-LxDT-28" value="UC013 : Booking Updates" style="ellipse;whiteSpace=wrap;html=1;fontSize=11;rounded=0;" parent="1" vertex="1">
                    <mxGeometry x="385" y="697" width="76" height="49" as="geometry"/>
                </mxCell>
                <mxCell id="7ME36p0e2wqwK5g-LxDT-29" value="UC014 : Payment Updates" style="ellipse;whiteSpace=wrap;html=1;fontSize=11;rounded=0;" parent="1" vertex="1">
                    <mxGeometry x="373" y="758" width="108" height="50" as="geometry"/>
                </mxCell>
                <mxCell id="7ME36p0e2wqwK5g-LxDT-30" value="&amp;lt;&amp;lt;include&amp;gt;&amp;gt;" style="text;html=1;strokeColor=none;fillColor=none;align=center;verticalAlign=middle;whiteSpace=wrap;rounded=0;fontSize=11;rotation=30;" parent="1" vertex="1">
                    <mxGeometry x="311.13" y="745.25" width="73" height="30" as="geometry"/>
                </mxCell>
                <mxCell id="7ME36p0e2wqwK5g-LxDT-31" value="&amp;lt;&amp;lt;include&amp;gt;&amp;gt;" style="text;html=1;strokeColor=none;fillColor=none;align=center;verticalAlign=middle;whiteSpace=wrap;rounded=0;fontSize=11;rotation=50;" parent="1" vertex="1">
                    <mxGeometry x="264.5" y="758" width="73" height="30" as="geometry"/>
                </mxCell>
                <mxCell id="7ME36p0e2wqwK5g-LxDT-32" value="UC015 : System Updates" style="ellipse;whiteSpace=wrap;html=1;fontSize=11;rounded=0;" parent="1" vertex="1">
                    <mxGeometry x="296.5" y="795" width="95" height="53" as="geometry"/>
                </mxCell>
                <mxCell id="7ME36p0e2wqwK5g-LxDT-33" value="&lt;font style=&quot;font-size: 9px;&quot;&gt;Booking Management Subsystem&lt;/font&gt;" style="rounded=0;whiteSpace=wrap;html=1;" parent="1" vertex="1">
                    <mxGeometry x="237" y="285" width="137" height="19" as="geometry"/>
                </mxCell>
                <mxCell id="7ME36p0e2wqwK5g-LxDT-34" value="" style="rounded=0;whiteSpace=wrap;html=1;" parent="1" vertex="1">
                    <mxGeometry x="236.5" y="163" width="338.5" height="114" as="geometry"/>
                </mxCell>
                <mxCell id="7ME36p0e2wqwK5g-LxDT-35" value="&lt;font style=&quot;font-size: 11px;&quot;&gt;Authentication Subsystem&lt;/font&gt;" style="rounded=0;whiteSpace=wrap;html=1;" parent="1" vertex="1">
                    <mxGeometry x="237" y="144" width="137" height="19" as="geometry"/>
                </mxCell>
                <mxCell id="7ME36p0e2wqwK5g-LxDT-36" value="UC001 : Sign up / Log in" style="ellipse;whiteSpace=wrap;html=1;fontSize=11;rounded=0;" parent="1" vertex="1">
                    <mxGeometry x="333" y="179.5" width="76" height="49" as="geometry"/>
                </mxCell>
                <mxCell id="7ME36p0e2wqwK5g-LxDT-37" value="&amp;lt;&amp;lt;include&amp;gt;&amp;gt;" style="text;html=1;strokeColor=none;fillColor=none;align=center;verticalAlign=middle;whiteSpace=wrap;rounded=0;fontSize=11;" parent="1" vertex="1">
                    <mxGeometry x="410" y="189" width="60" height="30" as="geometry"/>
                </mxCell>
                <mxCell id="7ME36p0e2wqwK5g-LxDT-38" value="UC002 : Password" style="ellipse;whiteSpace=wrap;html=1;fontSize=11;rounded=0;" parent="1" vertex="1">
                    <mxGeometry x="470" y="177" width="76" height="49" as="geometry"/>
                </mxCell>
                <mxCell id="7ME36p0e2wqwK5g-LxDT-39" value="&lt;font style=&quot;font-size: 9px;&quot;&gt;Administration Subsystem&lt;/font&gt;" style="rounded=0;whiteSpace=wrap;html=1;" parent="1" vertex="1">
                    <mxGeometry x="235.5" y="893" width="149.5" height="19" as="geometry"/>
                </mxCell>
                <mxCell id="7ME36p0e2wqwK5g-LxDT-40" value="UC016 : Manage Notification" style="ellipse;whiteSpace=wrap;html=1;fontSize=9;rounded=0;" parent="1" vertex="1">
                    <mxGeometry x="534" y="699" width="70" height="55" as="geometry"/>
                </mxCell>
                <mxCell id="7ME36p0e2wqwK5g-LxDT-41" value="Badal Hajj and Umrah Management System" style="text;html=1;align=center;verticalAlign=middle;resizable=0;points=[];autosize=1;strokeColor=none;fillColor=none;fontSize=10;rounded=0;" parent="1" vertex="1">
                    <mxGeometry x="298" y="99" width="220" height="30" as="geometry"/>
                </mxCell>
                <mxCell id="7ME36p0e2wqwK5g-LxDT-42" style="edgeStyle=none;html=1;exitX=0.5;exitY=0.5;exitDx=0;exitDy=0;exitPerimeter=0;entryX=0;entryY=0.5;entryDx=0;entryDy=0;" parent="1" source="7ME36p0e2wqwK5g-LxDT-45" target="7ME36p0e2wqwK5g-LxDT-36" edge="1">
                    <mxGeometry relative="1" as="geometry"/>
                </mxCell>
                <mxCell id="7ME36p0e2wqwK5g-LxDT-43" style="edgeStyle=none;html=1;exitX=0.5;exitY=0.5;exitDx=0;exitDy=0;exitPerimeter=0;" parent="1" source="7ME36p0e2wqwK5g-LxDT-45" target="7ME36p0e2wqwK5g-LxDT-16" edge="1">
                    <mxGeometry relative="1" as="geometry"/>
                </mxCell>
                <mxCell id="7ME36p0e2wqwK5g-LxDT-44" style="edgeStyle=none;html=1;exitX=0.5;exitY=0.5;exitDx=0;exitDy=0;exitPerimeter=0;entryX=-0.011;entryY=0.301;entryDx=0;entryDy=0;entryPerimeter=0;" parent="1" source="7ME36p0e2wqwK5g-LxDT-45" target="7ME36p0e2wqwK5g-LxDT-26" edge="1">
                    <mxGeometry relative="1" as="geometry"/>
                </mxCell>
                <mxCell id="7ME36p0e2wqwK5g-LxDT-45" value="User&lt;br&gt;" style="shape=umlActor;verticalLabelPosition=bottom;verticalAlign=top;html=1;outlineConnect=0;rounded=0;" parent="1" vertex="1">
                    <mxGeometry x="6" y="201" width="30" height="60" as="geometry"/>
                </mxCell>
                <mxCell id="7ME36p0e2wqwK5g-LxDT-46" style="edgeStyle=none;html=1;exitX=0.5;exitY=0.5;exitDx=0;exitDy=0;exitPerimeter=0;entryX=1;entryY=0;entryDx=0;entryDy=0;fontSize=9;rounded=0;" parent="1" source="7ME36p0e2wqwK5g-LxDT-48" target="7ME36p0e2wqwK5g-LxDT-23" edge="1">
                    <mxGeometry relative="1" as="geometry"/>
                </mxCell>
                <mxCell id="7ME36p0e2wqwK5g-LxDT-47" style="edgeStyle=none;jumpStyle=arc;html=1;exitX=0.5;exitY=0.5;exitDx=0;exitDy=0;exitPerimeter=0;entryX=1;entryY=1;entryDx=0;entryDy=0;" parent="1" source="7ME36p0e2wqwK5g-LxDT-48" target="7ME36p0e2wqwK5g-LxDT-36" edge="1">
                    <mxGeometry relative="1" as="geometry"/>
                </mxCell>
                <mxCell id="7ME36p0e2wqwK5g-LxDT-48" value="System Administrator" style="shape=umlActor;verticalLabelPosition=bottom;verticalAlign=top;html=1;outlineConnect=0;rounded=0;" parent="1" vertex="1">
                    <mxGeometry x="807" y="201" width="30" height="60" as="geometry"/>
                </mxCell>
                <mxCell id="7ME36p0e2wqwK5g-LxDT-49" style="edgeStyle=none;html=1;exitX=0.5;exitY=0.5;exitDx=0;exitDy=0;exitPerimeter=0;entryX=1;entryY=0.5;entryDx=0;entryDy=0;fontSize=9;shadow=1;rounded=0;" parent="1" source="7ME36p0e2wqwK5g-LxDT-52" target="7ME36p0e2wqwK5g-LxDT-9" edge="1">
                    <mxGeometry relative="1" as="geometry">
                        <Array as="points"/>
                    </mxGeometry>
                </mxCell>
                <mxCell id="7ME36p0e2wqwK5g-LxDT-50" style="edgeStyle=none;html=1;exitX=0.5;exitY=0.5;exitDx=0;exitDy=0;exitPerimeter=0;entryX=1;entryY=0.5;entryDx=0;entryDy=0;fontSize=9;rounded=0;" parent="1" source="7ME36p0e2wqwK5g-LxDT-52" target="7ME36p0e2wqwK5g-LxDT-40" edge="1">
                    <mxGeometry relative="1" as="geometry"/>
                </mxCell>
                <mxCell id="7ME36p0e2wqwK5g-LxDT-51" style="edgeStyle=none;html=1;exitX=0.5;exitY=0.5;exitDx=0;exitDy=0;exitPerimeter=0;entryX=0.5;entryY=1;entryDx=0;entryDy=0;" parent="1" source="7ME36p0e2wqwK5g-LxDT-52" target="7ME36p0e2wqwK5g-LxDT-36" edge="1">
                    <mxGeometry relative="1" as="geometry"/>
                </mxCell>
                <mxCell id="7ME36p0e2wqwK5g-LxDT-52" value="Top Management" style="shape=umlActor;verticalLabelPosition=bottom;verticalAlign=top;html=1;outlineConnect=0;rounded=0;" parent="1" vertex="1">
                    <mxGeometry x="807" y="686" width="30" height="60" as="geometry"/>
                </mxCell>
                <mxCell id="7ME36p0e2wqwK5g-LxDT-53" style="edgeStyle=none;html=1;exitX=0.5;exitY=0.5;exitDx=0;exitDy=0;exitPerimeter=0;entryX=0.963;entryY=0.171;entryDx=0;entryDy=0;entryPerimeter=0;fontSize=9;rounded=0;jumpStyle=arc;" parent="1" source="7ME36p0e2wqwK5g-LxDT-48" target="7ME36p0e2wqwK5g-LxDT-9" edge="1">
                    <mxGeometry relative="1" as="geometry"/>
                </mxCell>
                <mxCell id="7ME36p0e2wqwK5g-LxDT-54" style="edgeStyle=none;html=1;exitX=0.5;exitY=0.5;exitDx=0;exitDy=0;exitPerimeter=0;jumpStyle=arc;" parent="1" source="7ME36p0e2wqwK5g-LxDT-48" target="7ME36p0e2wqwK5g-LxDT-4" edge="1">
                    <mxGeometry relative="1" as="geometry">
                        <Array as="points"/>
                    </mxGeometry>
                </mxCell>
                <mxCell id="7ME36p0e2wqwK5g-LxDT-55" style="edgeStyle=none;html=1;exitX=0.5;exitY=0.5;exitDx=0;exitDy=0;exitPerimeter=0;jumpStyle=arc;" parent="1" source="7ME36p0e2wqwK5g-LxDT-48" target="7ME36p0e2wqwK5g-LxDT-10" edge="1">
                    <mxGeometry relative="1" as="geometry">
                        <Array as="points"/>
                    </mxGeometry>
                </mxCell>
                <mxCell id="7ME36p0e2wqwK5g-LxDT-56" style="edgeStyle=none;html=1;exitX=0.5;exitY=0.5;exitDx=0;exitDy=0;exitPerimeter=0;entryX=1;entryY=0;entryDx=0;entryDy=0;fontSize=9;rounded=0;jumpStyle=arc;" parent="1" source="7ME36p0e2wqwK5g-LxDT-48" target="7ME36p0e2wqwK5g-LxDT-40" edge="1">
                    <mxGeometry relative="1" as="geometry"/>
                </mxCell>
                <mxCell id="7ME36p0e2wqwK5g-LxDT-57" style="edgeStyle=none;html=1;exitX=0.5;exitY=0.5;exitDx=0;exitDy=0;exitPerimeter=0;entryX=1;entryY=0;entryDx=0;entryDy=0;jumpStyle=arc;" parent="1" source="7ME36p0e2wqwK5g-LxDT-52" target="7ME36p0e2wqwK5g-LxDT-10" edge="1">
                    <mxGeometry relative="1" as="geometry"/>
                </mxCell>
            </root>
        </mxGraphModel>
    </diagram>
</mxfile>